HIERARCHY
ROOT Hips
{
  OFFSET 49.015 102.023 -16.8275
  CHANNELS 6 Xposition Yposition Zposition Zrotation Xrotation Yrotation
  JOINT Chest
  {
    OFFSET 1.23234e-007 14.8421 1.27321e-009
    CHANNELS 6 Xposition Yposition Zposition Zrotation Xrotation Yrotation
    JOINT LeftCollar
    {
      OFFSET 6.64893 27.3161 3.27471
      CHANNELS 6 Xposition Yposition Zposition Zrotation Xrotation Yrotation
      JOINT LeftUpArm
      {
        OFFSET 10.8584 2.41798 -0.945791
        CHANNELS 6 Xposition Yposition Zposition Zrotation Xrotation Yrotation
        JOINT LeftLowArm
        {
          OFFSET 3.77631 -24.5904 -1.70468
          CHANNELS 6 Xposition Yposition Zposition Zrotation Xrotation Yrotation
          JOINT LeftHand
          {
            OFFSET 1.01026 -21.1231 1.74131
            CHANNELS 6 Xposition Yposition Zposition Zrotation Xrotation Yrotation
            End Site
            {
              OFFSET 1.17583e-006 -9.81266 -2.89439e-008
            }
          }
        }
      }
    }
    JOINT RightCollar
    {
      OFFSET -6.11406 27.2248 4.23427
      CHANNELS 6 Xposition Yposition Zposition Zrotation Xrotation Yrotation
      JOINT RightUpArm
      {
        OFFSET -10.4566 2.3285 -0.910794
        CHANNELS 6 Xposition Yposition Zposition Zrotation Xrotation Yrotation
        JOINT RightLowArm
        {
          OFFSET -3.86856 -25.191 -1.74633
          CHANNELS 6 Xposition Yposition Zposition Zrotation Xrotation Yrotation
          JOINT RightHand
          {
            OFFSET -1.04759 -20.6242 1.75213
            CHANNELS 6 Xposition Yposition Zposition Zrotation Xrotation Yrotation
            End Site
            {
              OFFSET -2.03487e-006 -9.50367 -4.31372e-006
            }
          }
        }
      }
    }
    JOINT Neck
    {
      OFFSET 0.51659 29.8236 6.51843
      CHANNELS 6 Xposition Yposition Zposition Zrotation Xrotation Yrotation
      JOINT Head
      {
        OFFSET 1.16803e-007 7.47049 6.44171e-007
        CHANNELS 6 Xposition Yposition Zposition Zrotation Xrotation Yrotation
        End Site
        {
          OFFSET -4.32676e-008 16.2908 2.16786e-007
        }
      }
    }
  }
  JOINT LeftUpLeg
  {
    OFFSET 9 -3.38008e-006 -5.23001e-009
    CHANNELS 6 Xposition Yposition Zposition Zrotation Xrotation Yrotation
    JOINT LeftLowLeg
    {
      OFFSET -0.575 -51.431 3.90177
      CHANNELS 6 Xposition Yposition Zposition Zrotation Xrotation Yrotation
      JOINT LeftFoot
      {
        OFFSET 2.13082e-007 -43.5882 -3.90177
        CHANNELS 6 Xposition Yposition Zposition Zrotation Xrotation Yrotation
        End Site
        {
          OFFSET 7.44796e-007 -6.93413 15.0046
        }
      }
    }
  }
  JOINT RightUpLeg
  {
    OFFSET -9 6.86154e-007 -3.19547e-009
    CHANNELS 6 Xposition Yposition Zposition Zrotation Xrotation Yrotation
    JOINT RightLowLeg
    {
      OFFSET 0.575 -51.4311 3.90177
      CHANNELS 6 Xposition Yposition Zposition Zrotation Xrotation Yrotation
      JOINT RightFoot
      {
        OFFSET -7.46079e-007 -43.5882 -3.90177
        CHANNELS 6 Xposition Yposition Zposition Zrotation Xrotation Yrotation
        End Site
        {
          OFFSET 4.66716e-007 -6.93413 15.0046
        }
      }
    }
  }
}
MOTION
Frames:	9
Frame Time:	0.0333333
49.015 102.023 -16.8275 -0.738132 6.95527 -7.63546 1.23234e-007 14.8421 1.27321e-009 6.2626 -29.3704 7.71732 6.64893 27.3161 3.27471 -2.94784 5.93879 -4.20517 10.8584 2.41798 -0.945791 96.9124 11.9055 12.6694 3.77631 -24.5904 -1.70468 14.7789 -10.4778 -8.58677 1.01026 -21.1231 1.74131 1.88806 2.49164 0.00259336 -6.11406 27.2248 4.23427 -1.96452 7.32629 3.42623 -10.4566 2.3285 -0.910794 -98.0037 6.22342 2.37666 -3.86856 -25.191 -1.74633 -21.3747 0.212677 28.6851 -1.04759 -20.6242 1.75213 -4.56024 -0.274211 -0.381561 0.51659 29.8236 6.51843 6.91086 33.8948 -5.24088 1.16803e-007 7.47049 6.44171e-007 -1.18079 -24.4711 -0.310315 9 -3.38008e-006 -5.23001e-009 7.43124 -8.03749 9.64433 -0.575 -51.431 3.90177 -4.33235 10.71 -2.4809 2.13082e-007 -43.5882 -3.90177 -5.03304 3.63542 0.676642 -9 6.86154e-007 -3.19547e-009 -2.61513 -6.84325 -9.42857 0.575 -51.4311 3.90177 0.982956 2.53359 -10.6888 -7.46079e-007 -43.5882 -3.90177 0.192355 6.55425 -0.123637 
49.0308 102.027 -16.8223 -0.719847 6.91359 -7.59078 1.23234e-007 14.8421 1.27322e-009 6.15847 -29.3555 7.60312 6.64893 27.3161 3.27471 -2.94784 5.93879 -4.20517 10.8584 2.41798 -0.945791 96.9603 11.8714 12.6984 3.77631 -24.5904 -1.70468 14.6789 -10.3981 -8.16558 1.01026 -21.1231 1.74131 2.41139 2.21922 0.049161 -6.11406 27.2248 4.23427 -1.96452 7.32629 3.42623 -10.4566 2.3285 -0.910794 -97.9198 6.1826 2.44569 -3.86856 -25.191 -1.74633 -21.2809 0.370056 28.1984 -1.04759 -20.6242 1.75213 -4.96567 -0.221854 -0.433201 0.51659 29.8236 6.51843 6.8589 33.9271 -5.13793 1.16803e-007 7.47049 6.44171e-007 -1.10211 -24.4951 -0.227755 9 -3.38008e-006 -5.23001e-009 7.3917 -8.03169 9.62031 -0.575 -51.431 3.90177 -4.32001 10.7501 -2.4402 2.13082e-007 -43.5882 -3.90177 -5.05887 3.62824 0.679682 -9 6.86154e-007 -3.19546e-009 -2.64838 -6.80364 -9.43188 0.575 -51.4311 3.90177 0.958296 2.53721 -10.7274 -7.46079e-007 -43.5882 -3.90177 0.135017 6.44882 -0.113587 
49.0436 102.029 -16.8058 -0.747857 6.86422 -7.5371 1.23234e-007 14.8421 1.27322e-009 6.36994 -29.3332 7.62736 6.64893 27.3161 3.27471 -2.94784 5.93879 -4.20517 10.8584 2.41798 -0.945791 97.0833 11.7429 13.7074 3.77631 -24.5904 -1.70468 15.1018 -10.295 -12.8822 1.01026 -21.1231 1.74131 -1.61286 3.06108 -0.321662 -6.11406 27.2248 4.23427 -1.96452 7.32629 3.42623 -10.4566 2.3285 -0.910794 -98.1503 6.19926 2.35598 -3.86856 -25.191 -1.74633 -21.4239 0.314221 28.4558 -1.04759 -20.6242 1.75213 -4.9313 -0.155813 -0.430462 0.51659 29.8236 6.51843 6.72332 33.9689 -5.02108 1.16803e-007 7.47049 6.44171e-007 -1.00255 -24.5049 -0.181711 9 -3.38008e-006 -5.23001e-009 7.39498 -7.96433 9.61387 -0.575 -51.431 3.90177 -4.30705 10.7215 -2.44582 2.13082e-007 -43.5882 -3.90177 -4.95094 3.56888 0.662711 -9 6.86154e-007 -3.19544e-009 -2.64141 -6.73339 -9.43585 0.575 -51.4311 3.90177 0.95156 2.539 -10.781 -7.46079e-007 -43.5882 -3.90177 0.148005 6.48178 -0.115998 
49.0653 102.021 -16.8127 -0.716593 6.86633 -7.53328 1.23234e-007 14.8421 1.27322e-009 6.31765 -29.3467 7.57975 6.64893 27.3161 3.27471 -2.94784 5.93879 -4.20517 10.8584 2.41798 -0.945791 97.0789 11.7453 13.7687 3.77631 -24.5904 -1.70468 15.1202 -10.3408 -12.6805 1.01026 -21.1231 1.74131 -1.47223 3.05282 -0.305528 -6.11406 27.2248 4.23427 -1.96452 7.32629 3.42623 -10.4566 2.3285 -0.910794 -98.1399 6.24149 2.37155 -3.86856 -25.191 -1.74633 -21.4327 0.263081 28.5272 -1.04759 -20.6242 1.75213 -4.81379 -0.190323 -0.415149 0.51659 29.8236 6.51843 6.75067 33.9021 -4.9817 1.16803e-007 7.47049 6.44171e-007 -1.07626 -24.5167 -0.129411 9 -3.38008e-006 -5.23001e-009 7.3547 -7.96357 9.61092 -0.575 -51.431 3.90177 -4.33434 10.6955 -2.53132 2.13082e-007 -43.5882 -3.90177 -4.94538 3.59436 0.663215 -9 6.86154e-007 -3.19542e-009 -2.69273 -6.75412 -9.4902 0.575 -51.4311 3.90177 0.97767 2.54041 -10.7985 -7.46079e-007 -43.5882 -3.90177 0.128448 6.47107 -0.112986 
49.081 102.023 -16.829 -0.690091 6.86049 -7.47964 1.23234e-007 14.8421 1.27323e-009 6.27419 -29.3457 7.47477 6.64893 27.3161 3.27471 -2.94784 5.93879 -4.20517 10.8584 2.41798 -0.945791 97.1123 11.7734 13.6805 3.77631 -24.5904 -1.70468 15.1085 -10.3157 -12.7958 1.01026 -21.1231 1.74131 -1.89191 3.20936 -0.334903 -6.11406 27.2248 4.23427 -1.96452 7.32629 3.42623 -10.4566 2.3285 -0.910794 -98.1237 6.19923 2.31679 -3.86856 -25.191 -1.74633 -21.417 0.341673 28.2442 -1.04759 -20.6242 1.75213 -4.90031 -0.162275 -0.426482 0.51659 29.8236 6.51843 6.51293 33.8746 -4.80884 1.16803e-007 7.47049 6.44171e-007 -0.931311 -24.5094 -0.0899489 9 -3.38008e-006 -5.23001e-009 7.32006 -8.00745 9.59752 -0.575 -51.431 3.90177 -4.34318 10.7556 -2.59377 2.13082e-007 -43.5882 -3.90177 -4.90057 3.56419 0.655934 -9 6.86154e-007 -3.1954e-009 -2.7173 -6.75246 -9.47276 0.575 -51.4311 3.90177 0.92953 2.54222 -10.8788 -7.46079e-007 -43.5882 -3.90177 0.143378 6.47763 -0.115276 
49.0995 102.011 -16.8856 -0.759427 6.86083 -7.46946 1.23234e-007 14.8421 1.27323e-009 6.33678 -29.288 7.42286 6.64893 27.3161 3.27471 -2.94784 5.93879 -4.20517 10.8584 2.41798 -0.945791 97.1206 11.8166 13.473 3.77631 -24.5904 -1.70468 15.0423 -10.2834 -12.4362 1.01026 -21.1231 1.74131 -1.99642 3.27489 -0.339802 -6.11406 27.2248 4.23427 -1.96452 7.32629 3.42623 -10.4566 2.3285 -0.910794 -98.0526 6.16748 2.29386 -3.86856 -25.191 -1.74633 -21.3635 0.426127 27.8805 -1.04759 -20.6242 1.75213 -4.93411 -0.0850893 -0.432476 0.51659 29.8236 6.51843 6.37953 33.8023 -4.6698 1.16803e-007 7.47049 6.44171e-007 -0.84164 -24.5038 -0.0254715 9 -3.38008e-006 -5.23001e-009 7.40811 -8.102 9.6549 -0.575 -51.431 3.90177 -4.34683 10.9109 -2.57307 2.13082e-007 -43.5882 -3.90177 -4.94678 3.54863 0.661206 -9 6.86154e-007 -3.19537e-009 -2.65181 -6.77548 -9.41604 0.575 -51.4311 3.90177 0.916918 2.54521 -10.8182 -7.46079e-007 -43.5882 -3.90177 0.19562 6.59193 -0.124704 
49.1288 102.005 -16.9317 -0.764437 6.91459 -7.44132 1.23234e-007 14.8421 1.27324e-009 6.29953 -29.2585 7.34988 6.64893 27.3161 3.27471 -2.94784 5.93879 -4.20517 10.8584 2.41798 -0.945791 97.1032 11.8405 13.5435 3.77631 -24.5904 -1.70468 15.0884 -10.3694 -12.3482 1.01026 -21.1231 1.74131 -1.9386 3.57861 -0.309956 -6.11406 27.2248 4.23427 -1.96452 7.32629 3.42623 -10.4566 2.3285 -0.910794 -97.9643 6.20673 2.19354 -3.86856 -25.191 -1.74633 -21.4155 0.329406 28.0131 -1.04759 -20.6242 1.75213 -4.64195 -0.100115 -0.396194 0.51659 29.8236 6.51843 6.37737 33.5149 -4.62422 1.16803e-007 7.47049 6.44171e-007 -0.963534 -24.2876 0.00158779 9 -3.38008e-006 -5.23001e-009 7.45002 -8.20119 9.71679 -0.575 -51.431 3.90177 -4.41984 10.9344 -2.64264 2.13082e-007 -43.5882 -3.90177 -4.95656 3.56758 0.663388 -9 6.86154e-007 -3.19535e-009 -2.66802 -6.85576 -9.44388 0.575 -51.4311 3.90177 0.947536 2.54454 -10.8327 -7.46079e-007 -43.5882 -3.90177 0.155229 6.52867 -0.117791 
49.1348 102 -17.001 -0.784187 7.01013 -7.50644 1.23234e-007 14.8421 1.27324e-009 6.34715 -29.2842 7.39659 6.64893 27.3161 3.27471 -2.94784 5.93879 -4.20517 10.8584 2.41798 -0.945791 97.1391 11.8454 13.4451 3.77631 -24.5904 -1.70468 15.081 -10.3493 -12.461 1.01026 -21.1231 1.74131 -1.76019 3.52901 -0.296925 -6.11406 27.2248 4.23427 -1.96452 7.32629 3.42623 -10.4566 2.3285 -0.910794 -97.9146 6.23534 2.24898 -3.86856 -25.191 -1.74633 -21.3972 0.290808 28.1092 -1.04759 -20.6242 1.75213 -4.42924 -0.159686 -0.368474 0.51659 29.8236 6.51843 6.44532 33.6612 -4.6324 1.16803e-007 7.47049 6.44171e-007 -0.95906 -24.5018 0.0429225 9 -3.38008e-006 -5.23001e-009 7.46079 -8.37158 9.69074 -0.575 -51.431 3.90177 -4.37027 11.0604 -2.61547 2.13082e-007 -43.5882 -3.90177 -4.91687 3.4787 0.653983 -9 6.86154e-007 -3.19532e-009 -2.61534 -7.00634 -9.37841 0.575 -51.4311 3.90177 0.92246 2.55072 -10.9211 -7.46079e-007 -43.5882 -3.90177 0.152172 6.53374 -0.117427 
49.1888 101.994 -17.0605 -0.762086 7.01514 -7.52132 1.23234e-007 14.8421 1.27325e-009 6.31027 -29.1759 7.35162 6.64893 27.3161 3.27471 -2.94784 5.93879 -4.20517 10.8584 2.41798 -0.945791 97.1383 11.8046 13.5728 3.77631 -24.5904 -1.70468 15.0781 -10.3318 -12.4473 1.01026 -21.1231 1.74131 -1.85896 3.3181 -0.32297 -6.11406 27.2248 4.23427 -1.96452 7.32629 3.42623 -10.4566 2.3285 -0.910794 -97.8075 6.20601 2.30269 -3.86856 -25.191 -1.74633 -21.3062 0.432923 27.7564 -1.04759 -20.6242 1.75213 -4.70489 -0.0557666 -0.405056 0.51659 29.8236 6.51843 6.55239 33.5217 -4.67006 1.16803e-007 7.47049 6.44171e-007 -1.15871 -24.4601 0.0536792 9 -3.38008e-006 -5.23002e-009 7.38879 -8.39838 9.61376 -0.575 -51.431 3.90177 -4.31507 11.0072 -2.50805 2.13082e-007 -43.5882 -3.90177 -4.86618 3.44853 0.645989 -9 6.86154e-007 -3.19531e-009 -2.67986 -7.04389 -9.44896 0.575 -51.4311 3.90177 0.971033 2.55135 -10.8072 -7.46079e-007 -43.5882 -3.90177 0.124839 6.51965 -0.11322 
